# xmcd
#
# Track frame offsets:
#	150
#	19855
#	43085
#	63177
#	84839
#	103520
#	134980
#	159365
#	176769
#	197618
#	212661
#
# Disc length: 3119 seconds
#
# Revision: 1
# Processed by: cddbd v1.5.1PL2 Copyright (c) Steve Scherf et al.
# Submitted via: audiograbber 1.83.01
#
DISCID=920c2d0b
DTITLE=Georgie Blues Dogs - Hard Times
DYEAR=2001
DGENRE=Blues
TTITLE0=Let Me Love You
TTITLE1=Don't Be Cruel
TTITLE2=Sweet Darlene
TTITLE3=Define Your Terms
TTITLE4=Amy
TTITLE5=I Can't Refuse
TTITLE6=Lies
TTITLE7=Hard Times
TTITLE8=True Blue
TTITLE9=This Girl Is All Mine
TTITLE10=Lonely
EXTD=YEAR: 2001
EXTT0=
EXTT1=
EXTT2=
EXTT3=
EXTT4=
EXTT5=
EXTT6=
EXTT7=
EXTT8=
EXTT9=
EXTT10=
PLAYORDER=
